# xmcd CD database file
#
# Track frame offsets:
#	150
#	26285
#	45145
#	65055
#	86802
#	100922
#	129482
#	151817
#	185660
#	204297
#	230095
#	261490
#
# Disc length: 4168 seconds
#
# Revision: 0
# Processed by: cddbd v1.5.1PL2 Copyright (c) Steve Scherf et al.
# Submitted via: CDex 1.51
#
DISCID=9e10460c
DTITLE=The High Time Rollers - Wanna High Time?
DYEAR=2002
DGENRE=Jazz
TTITLE0=Second Line
TTITLE1=Canal Street Blues
TTITLE2=Lead Me Savior
TTITLE3=Careless Love
TTITLE4=Cornet Cop Suey
TTITLE5=St. Louis Blues
TTITLE6=King Porter Stomp
TTITLE7=His Eye Is On The Sparrow
TTITLE8=Got Me A New Love Thing
TTITLE9=Nobody Knows The Trouble I've Seen
TTITLE10=Tenessee Waltz
TTITLE11=Tiger Rag - Live Version
EXTD=YEAR: 2002
EXTT0=
EXTT1=
EXTT2=
EXTT3=
EXTT4=
EXTT5=
EXTT6=
EXTT7=
EXTT8=
EXTT9=
EXTT10=
EXTT11=
PLAYORDER=
